<svg width="24" height="24" viewBox="0 0 24 24" fill="none" xmlns="http://www.w3.org/2000/svg">
<path d="M20.25 15.2979V17.5479C19.5 17.5479 18.75 16.4229 18.75 14.5479V12.2979C15.75 16.0479 15 17.5479 15 19.0479C14.9999 19.784 15.2165 20.5039 15.6227 21.1178C16.029 21.7317 16.6069 22.2124 17.2845 22.5001C17.5137 21.4811 18.021 20.5457 18.75 19.7979C19.479 20.5457 19.9863 21.4811 20.2155 22.5001C20.8931 22.2124 21.471 21.7317 21.8773 21.1178C22.2835 20.5039 22.5001 19.784 22.5 19.0479C22.5 17.5479 21.6562 16.3696 20.25 15.2979ZM12.75 21.0001H3V18.0001H12.75V16.5001H3C2.6023 16.5005 2.221 16.6587 1.93978 16.9399C1.65856 17.2211 1.5004 17.6024 1.5 18.0001V21.0001C1.5004 21.3978 1.65856 21.7791 1.93978 22.0603C2.221 22.3415 2.6023 22.4997 3 22.5001H12.75V21.0001Z" fill="#FCB01B"/>
<path d="M21 9H5.25C4.8523 9.0004 4.471 9.15856 4.18978 9.43978C3.90856 9.721 3.7504 10.1023 3.75 10.5V13.5C3.7504 13.8977 3.90856 14.279 4.18978 14.5602C4.471 14.8414 4.8523 14.9996 5.25 15H12.75V13.5H5.25V10.5H21L21.0007 12H22.5V10.5C22.4996 10.1023 22.3414 9.721 22.0602 9.43978C21.779 9.15856 21.3977 9.0004 21 9ZM18.75 7.5H3C2.6023 7.4996 2.221 7.34144 1.93978 7.06022C1.65856 6.779 1.5004 6.3977 1.5 6V3C1.5004 2.6023 1.65856 2.221 1.93978 1.93978C2.221 1.65856 2.6023 1.5004 3 1.5H18.75C19.1477 1.5004 19.529 1.65856 19.8102 1.93978C20.0914 2.221 20.2496 2.6023 20.25 3V6C20.2496 6.3977 20.0914 6.779 19.8102 7.06022C19.529 7.34144 19.1477 7.4996 18.75 7.5ZM3 3V6H18.75V3H3Z" fill="#FCB01B"/>
</svg>
