<svg width="23" height="23" viewBox="0 0 23 23" fill="none" xmlns="http://www.w3.org/2000/svg">
<path d="M4.08257 11.4996C3.92138 10.8733 3.83769 10.2296 3.83341 9.58292C3.83769 8.93624 3.92138 8.29253 4.08257 7.66625H7.32174C7.23824 8.30183 7.19343 8.9419 7.18757 9.58292C7.19344 10.2239 7.23824 10.864 7.32174 11.4996H9.25757C9.1629 10.8649 9.11167 10.2246 9.10424 9.58292C9.11128 8.94127 9.16251 8.30086 9.25757 7.66625H13.7426C13.8376 8.30087 13.8888 8.94127 13.8959 9.58292C13.8884 10.2246 13.8372 10.8649 13.7426 11.4996H15.6784C15.7619 10.864 15.8067 10.2239 15.8126 9.58292C15.8067 8.9419 15.7619 8.30183 15.6784 7.66625H18.9176C19.0788 8.29253 19.1625 8.93624 19.1667 9.58292C19.1625 10.2296 19.0788 10.8733 18.9176 11.4996H20.8908C21.1738 10.1076 21.1438 8.67013 20.8031 7.29116C20.4623 5.91218 19.8193 4.6262 18.9205 3.52627C18.0217 2.42634 16.8896 1.53996 15.6062 0.931283C14.3227 0.322601 12.92 0.00683594 11.4996 0.00683594C10.0791 0.00683594 8.67645 0.322601 7.39302 0.931283C6.10959 1.53996 4.97751 2.42634 4.07872 3.52627C3.17992 4.6262 2.53687 5.91218 2.19611 7.29116C1.85535 8.67013 1.82539 10.1076 2.10841 11.4996H4.08257ZM18.1317 5.74959H15.3047C15.0047 4.56265 14.5606 3.4169 13.9822 2.33792C15.7303 2.93976 17.2033 4.15082 18.1317 5.74959ZM11.5001 1.95459C12.3051 3.11598 12.9227 4.39658 13.3305 5.74959H9.66966C10.0774 4.39658 10.6951 3.11598 11.5001 1.95459V1.95459ZM9.01799 2.33792C8.43955 3.4169 7.99541 4.56264 7.69549 5.74959H4.86841C5.794 4.14838 7.26804 2.93646 9.01799 2.33792V2.33792ZM12.2179 16.7656H14.1345V17.724H12.2179V16.7656Z" fill="#FCB01B"/>
<path d="M20.123 13.417H2.87684C2.368 13.417 1.88 13.6191 1.52019 13.9789C1.16039 14.3387 0.958252 14.8267 0.958252 15.3356V21.0817C0.958252 21.3337 1.00788 21.5832 1.1043 21.816C1.20071 22.0487 1.34204 22.2602 1.52019 22.4384C1.69835 22.6165 1.90985 22.7579 2.14263 22.8543C2.3754 22.9507 2.62488 23.0003 2.87684 23.0003H20.123C20.6318 23.0003 21.1198 22.7982 21.4796 22.4384C21.8394 22.0786 22.0416 21.5906 22.0416 21.0817V15.3356C22.0416 14.8267 21.8394 14.3387 21.4796 13.9789C21.1198 13.6191 20.6318 13.417 20.123 13.417V13.417ZM8.86546 21.0885H7.42796V15.3384H8.86546V21.0885ZM15.5719 17.7247C15.5754 17.9144 15.5406 18.1029 15.4696 18.2789C15.3986 18.4549 15.2929 18.6148 15.1587 18.749C15.0245 18.8832 14.8646 18.9889 14.6886 19.0599C14.5126 19.1309 14.3241 19.1657 14.1344 19.1622H12.2177V21.0789H10.7802V15.3289H14.1344C14.3241 15.3254 14.5126 15.3601 14.6886 15.4311C14.8646 15.5021 15.0245 15.6079 15.1587 15.7421C15.2929 15.8763 15.3986 16.0361 15.4696 16.2121C15.5406 16.3881 15.5754 16.5766 15.5719 16.7664V17.7247Z" fill="#FCB01B"/>
</svg>
