<svg width="130" height="130" viewBox="0 0 130 130" fill="none" xmlns="http://www.w3.org/2000/svg">
<g opacity="0.2">
<path d="M57.6642 12.1396C61.7169 8.08681 68.2852 8.08681 72.3379 12.1396L117.861 57.6701C121.914 61.7229 121.914 68.2841 117.861 72.3299L72.3379 117.86C68.2852 121.913 61.7239 121.913 57.6782 117.86L12.1406 72.3369C11.1768 71.375 10.4121 70.2325 9.89038 68.9747C9.36865 67.717 9.1001 66.3687 9.1001 65.007C9.1001 63.6453 9.36865 62.297 9.89038 61.0392C10.4121 59.7815 11.1768 58.639 12.1406 57.6771L57.6642 12.1396ZM67.4467 17.0308C66.798 16.3822 65.9183 16.0179 65.001 16.0179C64.0838 16.0179 63.2041 16.3822 62.5554 17.0308L17.0249 62.5544C16.3763 63.203 16.0119 64.0827 16.0119 65C16.0119 65.9173 16.3763 66.797 17.0249 67.4456L62.5554 112.976C63.2041 113.625 64.0838 113.989 65.001 113.989C65.9183 113.989 66.798 113.625 67.4467 112.976L112.977 67.4456C113.626 66.797 113.99 65.9173 113.99 65C113.99 64.0827 113.626 63.203 112.977 62.5544L67.4467 17.0238V17.0308Z" fill="#005984"/>
<path d="M45.8203 49.5297C45.8108 49.7553 45.8475 49.9806 45.9282 50.1915C46.0089 50.4024 46.1319 50.5947 46.2896 50.7563C46.4473 50.918 46.6364 51.0457 46.8453 51.1315C47.0542 51.2174 47.2785 51.2596 47.5043 51.2556H53.269C54.2333 51.2556 55.0019 50.466 55.1277 49.5087C55.7566 44.9249 58.9009 41.5849 64.5049 41.5849C69.2983 41.5849 73.6865 43.9816 73.6865 49.7463C73.6865 54.1833 71.0732 56.2237 66.9435 59.3261C62.241 62.743 58.5166 66.7329 58.7821 73.2103L58.8031 74.7266C58.8104 75.185 58.9977 75.6222 59.3245 75.9438C59.6513 76.2654 60.0915 76.4456 60.55 76.4455H66.2168C66.6801 76.4455 67.1245 76.2615 67.4521 75.9339C67.7797 75.6063 67.9637 75.1619 67.9637 74.6986V73.965C67.9637 68.9479 69.8713 67.4875 75.0211 63.5815C79.2765 60.3463 83.7136 56.7547 83.7136 49.2152C83.7136 38.6571 74.7975 33.5562 65.036 33.5562C56.1828 33.5562 46.4841 37.6789 45.8203 49.5297ZM56.6999 89.7986C56.6999 93.523 59.6696 96.2761 63.7572 96.2761C68.0126 96.2761 70.9404 93.523 70.9404 89.7986C70.9404 85.9415 68.0056 83.2304 63.7503 83.2304C59.6696 83.2304 56.6999 85.9415 56.6999 89.7986Z" fill="#005984"/>
</g>
</svg>
