<svg width="75" height="75" viewBox="0 0 75 75" fill="none" xmlns="http://www.w3.org/2000/svg">
<path d="M13.3125 37.4998C12.7869 35.4576 12.514 33.3585 12.5 31.2498C12.514 29.1411 12.7869 27.042 13.3125 24.9998H23.875C23.6027 27.0723 23.4566 29.1595 23.4375 31.2498C23.4566 33.3401 23.6027 35.4272 23.875 37.4998H30.1875C29.8788 35.4303 29.7117 33.3421 29.6875 31.2498C29.7105 29.1575 29.8775 27.0692 30.1875 24.9998H44.8125C45.1224 27.0692 45.2895 29.1575 45.3125 31.2498C45.2882 33.3421 45.1211 35.4303 44.8125 37.4998H51.125C51.3973 35.4272 51.5434 33.3401 51.5625 31.2498C51.5434 29.1595 51.3973 27.0723 51.125 24.9998H61.6875C62.2132 27.042 62.4861 29.1411 62.5 31.2498C62.4861 33.3585 62.2132 35.4576 61.6875 37.4998H68.1219C69.0448 32.9608 68.9471 28.2733 67.8359 23.7767C66.7247 19.28 64.6278 15.0866 61.697 11.4999C58.7661 7.91313 55.0746 5.02277 50.8895 3.03794C46.7043 1.05311 42.1304 0.0234375 37.4984 0.0234375C32.8665 0.0234375 28.2925 1.05311 24.1074 3.03794C19.9223 5.02277 16.2308 7.91313 13.2999 11.4999C10.3691 15.0866 8.27218 19.28 7.16099 23.7767C6.04981 28.2733 5.95213 32.9608 6.87501 37.4998H13.3125ZM59.125 18.7498H49.9063C48.9282 14.8794 47.4799 11.1432 45.5938 7.6248C51.2941 9.58731 56.0974 13.5364 59.125 18.7498ZM37.5 6.3748C40.125 10.162 42.1392 14.3378 43.4688 18.7498H31.5313C32.8609 14.3378 34.875 10.162 37.5 6.3748ZM29.4063 7.6248C27.52 11.1432 26.0718 14.8793 25.0938 18.7498H15.875C18.8932 13.5285 23.6999 9.57658 29.4063 7.6248ZM39.8406 54.6717H46.0906V57.7967H39.8406V54.6717Z" fill="#FCB01B"/>
<path d="M65.6187 43.75H9.38125C7.72199 43.75 6.13069 44.4091 4.95741 45.5824C3.78414 46.7557 3.125 48.347 3.125 50.0063V68.7437C3.125 69.5653 3.28682 70.3789 3.60123 71.1379C3.91563 71.897 4.37647 72.5866 4.95741 73.1676C5.53836 73.7485 6.22804 74.2094 6.98709 74.5238C7.74613 74.8382 8.55967 75 9.38125 75H65.6187C67.278 75 68.8693 74.3409 70.0426 73.1676C71.2159 71.9943 71.875 70.403 71.875 68.7437V50.0063C71.875 48.347 71.2159 46.7557 70.0426 45.5824C68.8693 44.4091 67.278 43.75 65.6187 43.75ZM28.9094 68.7656H24.2219V50.0156H28.9094V68.7656ZM50.7781 57.7969C50.7896 58.4156 50.6761 59.0303 50.4446 59.6042C50.2131 60.178 49.8683 60.6994 49.4307 61.1369C48.9931 61.5745 48.4718 61.9194 47.8979 62.1509C47.324 62.3824 46.7093 62.4958 46.0906 62.4844H39.8406V68.7344H35.1531V49.9844H46.0906C46.7093 49.9729 47.324 50.0863 47.8979 50.3179C48.4718 50.5494 48.9931 50.8942 49.4307 51.3318C49.8683 51.7694 50.2131 52.2907 50.4446 52.8646C50.6761 53.4385 50.7896 54.0532 50.7781 54.6719V57.7969Z" fill="#FCB01B"/>
</svg>
