<svg width="75" height="75" viewBox="0 0 75 75" fill="none" xmlns="http://www.w3.org/2000/svg">
<path d="M31.25 50V46.875H9.40625L9.375 59.375C9.375 62.8438 12.1562 65.625 15.625 65.625H59.375C62.8438 65.625 65.625 62.8438 65.625 59.375V46.875H43.75V50H31.25ZM62.5 21.875H49.9688V15.625L43.7188 9.375H31.2188L24.9688 15.625V21.875H12.5C9.0625 21.875 6.25 24.6875 6.25 28.125V37.5C6.25 40.9688 9.03125 43.75 12.5 43.75H31.25V37.5H43.75V43.75H62.5C65.9375 43.75 68.75 40.9375 68.75 37.5V28.125C68.75 24.6875 65.9375 21.875 62.5 21.875ZM43.75 21.875H31.25V15.625H43.75V21.875Z" fill="#FCB01B"/>
</svg>
