<svg width="75" height="75" viewBox="0 0 75 75" fill="none" xmlns="http://www.w3.org/2000/svg">
<path d="M37.5 12.5C30.8696 12.5 24.5107 15.1339 19.8223 19.8223C15.1339 24.5107 12.5 30.8696 12.5 37.5C12.5 44.1304 15.1339 50.4893 19.8223 55.1777C24.5107 59.8661 30.8696 62.5 37.5 62.5C44.1304 62.5 50.4893 59.8661 55.1777 55.1777C59.8661 50.4893 62.5 44.1304 62.5 37.5C62.5 30.8696 59.8661 24.5107 55.1777 19.8223C50.4893 15.1339 44.1304 12.5 37.5 12.5ZM6.25 37.5C6.25 20.2406 20.2406 6.25 37.5 6.25C54.7594 6.25 68.75 20.2406 68.75 37.5C68.75 54.7594 54.7594 68.75 37.5 68.75C20.2406 68.75 6.25 54.7594 6.25 37.5Z" fill="#FCB01B"/>
<path d="M37.5 31.25C38.3288 31.25 39.1237 31.5792 39.7097 32.1653C40.2958 32.7513 40.625 33.5462 40.625 34.375V53.125C40.625 53.9538 40.2958 54.7487 39.7097 55.3347C39.1237 55.9208 38.3288 56.25 37.5 56.25C36.6712 56.25 35.8763 55.9208 35.2903 55.3347C34.7042 54.7487 34.375 53.9538 34.375 53.125V34.375C34.375 33.5462 34.7042 32.7513 35.2903 32.1653C35.8763 31.5792 36.6712 31.25 37.5 31.25ZM42.1875 23.4375C42.1875 24.6807 41.6936 25.873 40.8146 26.7521C39.9355 27.6311 38.7432 28.125 37.5 28.125C36.2568 28.125 35.0645 27.6311 34.1854 26.7521C33.3064 25.873 32.8125 24.6807 32.8125 23.4375C32.8125 22.1943 33.3064 21.002 34.1854 20.1229C35.0645 19.2439 36.2568 18.75 37.5 18.75C38.7432 18.75 39.9355 19.2439 40.8146 20.1229C41.6936 21.002 42.1875 22.1943 42.1875 23.4375Z" fill="#FCB01B"/>
</svg>
