<svg width="30" height="12" viewBox="0 0 30 12" fill="none" xmlns="http://www.w3.org/2000/svg">
<path d="M4.86327 0.10547C2.58983 0.585938 0.791 2.2793 0.193344 4.50586C0.0585785 5.02148 0.0410004 5.20313 0.0410004 6C0.0410004 6.79102 0.0585785 6.97852 0.187485 7.4707C0.662094 9.22266 1.76366 10.5762 3.36912 11.3613C3.72655 11.5371 4.23631 11.7422 4.5117 11.8125L5.00975 11.9473H15H24.9902L25.4824 11.8184C26.5429 11.5313 27.7676 10.793 28.4355 10.0254C29.1269 9.23438 29.584 8.36719 29.8359 7.36523C30.0293 6.5918 30.0176 5.31445 29.8125 4.5293C29.3379 2.75977 28.2012 1.38281 26.5664 0.597657C25.6172 0.140626 25.2304 0.0585947 24.0234 0.0585947C22.8047 0.0527353 22.3652 0.146485 21.416 0.609376C19.5234 1.5293 18.2812 3.27539 18.041 5.37305C17.9238 6.39258 18.1054 7.4707 18.5566 8.37305C18.6679 8.5957 18.7851 8.80664 18.8144 8.8418C18.8437 8.87109 18.8672 8.91797 18.8672 8.94141C18.8672 8.96484 17.1269 8.98828 15 8.98828C12.873 8.98828 11.1328 8.96484 11.1328 8.94141C11.1328 8.91797 11.1562 8.87109 11.1855 8.83594C11.2148 8.80664 11.332 8.5957 11.4433 8.37305C12.3457 6.5625 12.1172 4.25391 10.8691 2.51367C10.5234 2.02734 9.83201 1.35352 9.36326 1.04297C8.84178 0.691407 8.1035 0.351563 7.52928 0.19922C6.93162 0.0351572 5.4492 -0.0175772 4.86327 0.10547ZM6.6328 3.07617C7.98631 3.35742 8.97655 4.58789 8.97655 6C8.97655 7.98047 7.10155 9.4043 5.20311 8.87695C4.14256 8.58398 3.30467 7.68164 3.0703 6.58594C2.97069 6.10547 2.97069 5.89453 3.0703 5.40234C3.19334 4.8457 3.42186 4.40039 3.80858 3.99023C4.56444 3.1875 5.57811 2.85938 6.6328 3.07617ZM24.7558 3.09961C26.2031 3.48047 27.1992 4.99805 26.9531 6.45703C26.7597 7.61719 25.8633 8.60742 24.7558 8.90039C23.8183 9.14063 22.7695 8.88867 22.0371 8.24414C20.6777 7.04883 20.6777 4.94531 22.0371 3.75586C22.7754 3.10547 23.8183 2.85938 24.7558 3.09961Z" fill="#FCB01B"/>
</svg>
