<svg width="32" height="34" viewBox="0 0 32 34" fill="none" xmlns="http://www.w3.org/2000/svg">
<path d="M21 3.18751C16.57 3.18751 13 6.98063 13 11.6875C13 11.9372 13.037 12.2751 13.063 12.5843L4.49999 21.6814C4.03225 22.1751 3.66104 22.7623 3.40773 23.4091C3.15443 24.0559 3.02402 24.7495 3.02402 25.4501C3.02402 26.1506 3.15443 26.8443 3.40773 27.491C3.66104 28.1378 4.03225 28.725 4.49999 29.2188C4.9647 29.7157 5.51733 30.1101 6.12607 30.3793C6.73481 30.6484 7.38764 30.787 8.04699 30.787C8.70633 30.787 9.35916 30.6484 9.9679 30.3793C10.5766 30.1101 11.1293 29.7157 11.594 29.2188L20.156 20.1206C20.446 20.1482 20.766 20.1875 21 20.1875C25.43 20.1875 29 16.3944 29 11.6875C29.0053 10.3179 28.6825 8.96947 28.062 7.76901L27.437 6.54076L26.5 7.53738L22.187 12.0849L20.625 10.4253L24.905 5.84376L25.845 4.84713L24.688 4.18307C23.5577 3.52509 22.2888 3.18255 21 3.18751ZM21 5.31251C21.486 5.31251 21.848 5.53563 22.28 5.64507L18.5 9.66132L17.78 10.4263L18.5 11.1563L21.5 14.3438L22.188 15.1088L22.906 14.3438L26.688 10.3275C26.791 10.7865 27 11.1711 27 11.6875C27 15.2681 24.37 18.0625 21 18.0625C20.6 18.0625 20.28 18.0625 20.03 17.9956L19.5 17.8298L19.094 18.2623L10.187 27.7259C8.95699 29.0328 7.13699 29.0328 5.90699 27.7259L5.87499 27.6919C4.67499 26.3851 4.68499 24.4726 5.90499 23.1763L14.812 13.7137L15.219 13.2823L15.061 12.7192C15.001 12.4536 14.999 12.1136 14.999 11.6886C14.999 8.10795 17.629 5.31357 20.999 5.31357L21 5.31251Z" fill="#FCB01B"/>
</svg>
