<svg width="32" height="32" viewBox="0 0 32 32" fill="none" xmlns="http://www.w3.org/2000/svg">
<path d="M9.33331 4H21.3333C22.3942 4 23.4116 4.42143 24.1617 5.17157C24.9119 5.92172 25.3333 6.93913 25.3333 8V25.3333C25.3333 26.3942 24.9119 27.4116 24.1617 28.1618C23.4116 28.9119 22.3942 29.3333 21.3333 29.3333H9.33331C8.27245 29.3333 7.25503 28.9119 6.50489 28.1618C5.75474 27.4116 5.33331 26.3942 5.33331 25.3333V8C5.33331 6.93913 5.75474 5.92172 6.50489 5.17157C7.25503 4.42143 8.27245 4 9.33331 4ZM9.33331 5.33333C8.62607 5.33333 7.94779 5.61428 7.44769 6.11438C6.9476 6.61448 6.66665 7.29276 6.66665 8V25.3333C6.66665 26.0406 6.9476 26.7189 7.44769 27.219C7.94779 27.719 8.62607 28 9.33331 28H21.3333C22.0406 28 22.7188 27.719 23.2189 27.219C23.719 26.7189 24 26.0406 24 25.3333V8C24 7.29276 23.719 6.61448 23.2189 6.11438C22.7188 5.61428 22.0406 5.33333 21.3333 5.33333H9.33331ZM9.33331 6.66667H21.3333C21.6869 6.66667 22.0261 6.80714 22.2761 7.05719C22.5262 7.30724 22.6666 7.64638 22.6666 8V24C22.6666 24.3536 22.5262 24.6928 22.2761 24.9428C22.0261 25.1929 21.6869 25.3333 21.3333 25.3333H9.33331C8.97969 25.3333 8.64055 25.1929 8.3905 24.9428C8.14046 24.6928 7.99998 24.3536 7.99998 24V8C7.99998 7.64638 8.14046 7.30724 8.3905 7.05719C8.64055 6.80714 8.97969 6.66667 9.33331 6.66667ZM9.33331 8V24H21.3333V8H9.33331ZM12 10.6667H18.6666V12H12V10.6667ZM12 14.6667H18.6666V16H12V14.6667ZM12 18.6667H16V20H12V18.6667Z" fill="#FCB01B"/>
<circle cx="24" cy="4.23529" r="3.23529" fill="white" stroke="#FCB01B" stroke-width="2"/>
</svg>
