<svg width="32" height="32" viewBox="0 0 32 32" fill="none" xmlns="http://www.w3.org/2000/svg">
<path d="M7.99999 4C5.05332 4 2.66666 6.38667 2.66666 9.33333C2.66666 12.28 5.05332 14.6667 7.99999 14.6667C10.9467 14.6667 13.3333 12.28 13.3333 9.33333C13.3333 6.38667 10.9467 4 7.99999 4ZM7.99999 12C6.53332 12 5.33332 10.8 5.33332 9.33333C5.33332 7.86667 6.53332 6.66667 7.99999 6.66667C9.46666 6.66667 10.6667 7.86667 10.6667 9.33333C10.6667 10.8 9.46666 12 7.99999 12ZM7.99999 17.3333C5.05332 17.3333 2.66666 19.72 2.66666 22.6667C2.66666 25.6133 5.05332 28 7.99999 28C10.9467 28 13.3333 25.6133 13.3333 22.6667C13.3333 19.72 10.9467 17.3333 7.99999 17.3333ZM16 6.66667H29.3333V9.33333H16V6.66667ZM16 25.3333V22.6667H29.3333V25.3333H16ZM16 14.6667H29.3333V17.3333H16V14.6667Z" fill="#FCB01B"/>
</svg>
