<svg width="32" height="32" viewBox="0 0 32 32" fill="none" xmlns="http://www.w3.org/2000/svg">
<path d="M22.28 7.05333L25.3333 4H14.6667V14.6667L17.7333 11.6C20.36 13.5467 22.0667 16.64 22.0667 20.16C22.0667 21.9067 21.64 23.5467 20.8933 25C24 22.9733 26.0667 19.48 26.0667 15.4933C26.0667 12.1333 24.5867 9.13333 22.28 7.05333Z" fill="#FCB01B"/>
<path d="M9.94666 11.84C9.94666 10.0933 10.3733 8.45333 11.12 7C9.53148 8.02558 8.22556 9.4332 7.32177 11.094C6.41798 12.7549 5.94518 14.6158 5.94666 16.5067C5.94666 19.8667 7.41333 22.8667 9.73333 24.9467L6.66666 28H17.3333V17.3333L14.2667 20.4C11.6533 18.4533 9.94666 15.36 9.94666 11.84Z" fill="#FCB01B"/>
</svg>
