<svg width="63" height="72" viewBox="0 0 63 72" fill="none" xmlns="http://www.w3.org/2000/svg">
<path d="M9.30774 0.237301C6.49524 0.706051 4.21008 2.81543 3.60949 5.49609C3.27258 6.97558 3.25793 27.8496 3.59485 29.124C4.25403 31.6582 6.20227 33.6211 8.7218 34.2803C9.48352 34.4707 12.296 34.5 31.5001 34.5C50.7042 34.5 53.5167 34.4707 54.2784 34.2803C56.798 33.6211 58.7462 31.6582 59.4054 29.124C59.7423 27.8496 59.7277 6.97558 59.3907 5.49609C58.8634 3.18164 57.1788 1.35058 54.7765 0.486324L53.839 0.14941L31.9396 0.134762C19.8986 0.120113 9.71789 0.164059 9.30774 0.237301ZM12.7501 17.3027V29.8418L11.1534 29.7832C9.42492 29.7393 9.08801 29.6074 8.44348 28.7285C8.13586 28.333 8.13586 28.1719 8.09192 17.4932C8.06262 7.01953 8.06262 6.65332 8.34094 6.11132C8.50207 5.80371 8.73645 5.46679 8.85363 5.36425C9.30774 4.98339 10.2159 4.77832 11.4757 4.76367H12.7501V17.3027ZM53.8097 5.18847C54.1173 5.36425 54.4982 5.78906 54.6446 6.09668C54.9376 6.65332 54.9376 6.93164 54.9083 17.4932C54.8644 28.1719 54.8644 28.333 54.5568 28.7285C54.3956 28.9482 54.0734 29.2705 53.8536 29.4316C53.4581 29.7393 53.3702 29.7393 35.4405 29.7832L17.4376 29.8125V17.2881V4.76367L35.3527 4.79296L53.253 4.83691L53.8097 5.18847Z" fill="#FCB01B"/>
<path d="M24.3809 44.1534C24.0146 44.3291 23.6484 44.6367 23.4287 44.9883C23.1064 45.5157 23.0771 45.75 23.0186 47.7129L22.9746 49.8516L22.2861 49.3682C19.8252 47.6104 16.4121 46.6729 13.1309 46.8487C6.97852 47.1709 2.10059 50.8037 0.635742 56.1797C0.269531 57.5274 0.269531 61.2774 0.635742 62.625C2.10059 68.001 6.97852 71.6338 13.1309 71.9561C15.8262 72.1026 18.2871 71.5752 20.7041 70.3741C21.9785 69.7295 22.0371 69.6856 34.5469 60.0176C40.4209 55.4766 43.9951 52.8106 44.5811 52.5323C49.8691 50.0127 56.5195 52.4004 57.7939 57.2784C58.2627 59.1094 57.999 61.585 57.1641 63.1084C55.7432 65.7159 52.0664 67.503 48.5654 67.2686C45.6797 67.0782 44.5957 66.5508 40.377 63.2989C38.5459 61.8926 36.832 60.6621 36.5391 60.5743C35.0303 60.0762 33.4043 61.4239 33.5947 63.0352C33.6387 63.3868 33.7852 63.8555 33.9463 64.0752C34.4736 64.7784 40.875 69.627 42.1934 70.3008C47.7451 73.1573 54.7031 72.293 59.0977 68.1914C60.5039 66.8877 61.8223 64.6465 62.3643 62.625C62.7305 61.2774 62.7305 57.5274 62.3643 56.1797C62.0273 54.92 61.2363 53.2647 60.4453 52.166C57.2666 47.6983 50.4111 45.6768 44.625 47.4932C42.1494 48.2696 41.5342 48.6944 30.2549 57.4102C23.0771 62.962 19.2246 65.8477 18.5361 66.1993C13.248 68.8213 6.49512 66.4629 5.20605 61.5264C4.92773 60.4131 4.92773 58.3916 5.20605 57.2784C5.74805 55.2422 7.125 53.6455 9.27832 52.5909C11.9883 51.2725 14.6982 51.1407 17.584 52.1953L18.6826 52.5909L17.0566 52.6641C15.5771 52.7373 15.3867 52.7666 14.918 53.1328C13.541 54.1729 13.7168 56.2676 15.2402 57.0733C15.709 57.3223 16.1631 57.3516 20.7773 57.3516C26.1533 57.3516 26.417 57.3223 27.1055 56.6045C27.2812 56.4141 27.501 56.0918 27.5742 55.8868C27.6768 55.6524 27.7207 53.6602 27.6914 50.5401C27.6768 45.7647 27.6621 45.545 27.3545 45.0176C27.0176 44.4024 26.1094 43.875 25.4062 43.875C25.1719 43.875 24.7178 44.0069 24.3809 44.1534Z" fill="#FCB01B"/>
</svg>
