<svg width="75" height="75" viewBox="0 0 75 75" fill="none" xmlns="http://www.w3.org/2000/svg">
<path d="M0 19.8486V39.6973H15.4541H30.9082V26.4404V13.1836H24.3164H17.7246V6.59179V-1.14441e-05H8.8623H0V19.8486Z" fill="#FCB01B"/>
<path d="M44.0918 2.18262V4.35059L46.1865 4.43848C47.3291 4.48242 48.6035 4.61426 48.999 4.73145C53.0127 5.88867 55.7812 8.65723 56.9385 12.6709C57.0557 13.0664 57.1875 14.3408 57.2314 15.4834L57.3193 17.5635L55.1221 17.6074L52.9395 17.6514L57.2314 24.1699C59.5898 27.7588 61.582 30.6885 61.6699 30.6885C61.7578 30.6885 63.75 27.7588 66.1084 24.1699L70.4004 17.6514L68.2324 17.6074L66.0645 17.5635V15.9521C66.0645 14.1064 65.874 12.6855 65.4492 11.2061C63.7646 5.34668 58.8574 1.06934 52.7783 0.161133C52.207 0.0732422 50.0098 0 47.915 0H44.0918V2.18262Z" fill="#FCB01B"/>
<path d="M22.1191 5.05371V8.78906H25.8838H29.6631L25.9277 5.05371C23.877 3.00293 22.1777 1.31836 22.1631 1.31836C22.1338 1.31836 22.1191 3.00293 22.1191 5.05371Z" fill="#FCB01B"/>
<path d="M44.0918 55.1514V75H59.5459H75V61.7432V48.4863H68.4082H61.8164V41.8945V35.3027H52.9541H44.0918V55.1514Z" fill="#FCB01B"/>
<path d="M66.2109 40.3564V44.0918H69.9756H73.7549L70.0195 40.3564C67.9688 38.3057 66.2695 36.6211 66.2549 36.6211C66.2256 36.6211 66.2109 38.3057 66.2109 40.3564Z" fill="#FCB01B"/>
<path d="M8.83301 50.7129L4.43848 57.2022L6.5918 57.2461L8.74512 57.29L8.83301 59.5166C8.95019 62.8272 9.68262 65.2881 11.3086 67.8516C13.3301 70.9863 16.875 73.5352 20.5811 74.5166C21.9727 74.8828 22.2656 74.9121 26.4844 74.9707L30.9082 75.0293V72.832V70.6494L28.8281 70.5615C27.2314 70.5029 26.4844 70.415 25.708 70.166C22.2217 69.0527 19.5557 66.5186 18.3984 63.1934C17.915 61.8164 17.7246 60.5859 17.7246 58.7695V57.2754H19.9219H22.1191L17.7686 50.7568C15.3809 47.168 13.3887 44.2383 13.3301 44.2383C13.2715 44.2383 11.25 47.1533 8.83301 50.7129Z" fill="#FCB01B"/>
</svg>
