<svg width="75" height="75" viewBox="0 0 75 75" fill="none" xmlns="http://www.w3.org/2000/svg">
<path d="M5.28803 0.161118C3.39838 0.527328 1.52338 1.99217 0.717716 3.72069C-0.161191 5.59569 -0.175839 7.45604 0.67377 9.40428C1.05463 10.2685 1.86029 11.1035 13.4179 22.7051L25.7812 35.083L25.4882 36.0059C25.1513 37.1045 25.1074 38.5693 25.4003 39.6387C25.708 40.8105 26.2939 41.748 27.5537 43.1103L28.7109 44.3555L28.1249 45.5859C27.2753 47.3584 27.041 48.4131 27.041 50.3906C27.0263 52.4268 27.2607 53.4228 28.2128 55.3711L28.8867 56.7627L34.9218 62.7832L40.9423 68.8037L42.3339 69.4775C44.121 70.3564 45.3662 70.6348 47.3144 70.6348C49.8486 70.6201 51.958 69.917 53.9208 68.4375C55.1953 67.4707 71.1328 51.3135 72.041 50.083C76.2597 44.2822 75.9081 36.4307 71.1767 30.9668C70.2831 29.9414 69.7119 29.5898 68.9208 29.5898C67.749 29.5898 66.7968 30.5713 66.7968 31.7871C66.7968 32.3144 66.914 32.6221 67.3828 33.3105C67.8515 34.0137 67.9687 34.292 67.9687 34.8486C67.9687 36.4453 66.372 37.5293 65.0244 36.8408C64.746 36.6943 62.7831 34.8633 60.6445 32.7539C57.1289 29.2822 56.6455 28.8574 55.5761 28.3008C53.7597 27.3779 52.3974 27.041 50.3906 27.041C48.413 27.041 47.3583 27.2754 45.5712 28.125L44.3554 28.7109L43.2275 27.6562C42.6122 27.0849 41.8212 26.4258 41.455 26.1914C39.9316 25.2246 37.7636 24.9316 36.0058 25.4883L35.083 25.7812L22.705 13.418C11.2353 1.97752 10.2685 1.04002 9.43354 0.688461C7.95404 0.0439301 6.69428 -0.117203 5.28803 0.161118ZM7.51459 4.62889C8.01264 4.87791 31.6406 28.3887 31.6406 28.6377C31.6406 28.8281 28.8281 31.6406 28.6376 31.6406C28.3886 31.6406 4.87787 8.01268 4.62885 7.51463C3.73529 5.72752 5.72748 3.73534 7.51459 4.62889ZM38.9355 29.7949C39.1552 29.9121 39.7265 30.4101 40.2099 30.8935L41.0888 31.7871L36.4306 36.4307L31.7871 41.0889L30.8935 40.21C30.4101 39.7266 29.9121 39.1553 29.7949 38.9355C29.5312 38.4228 29.5312 37.456 29.7949 36.9434C30.0292 36.5039 36.5331 30 36.9872 29.751C37.3974 29.5312 38.4667 29.5459 38.9355 29.7949ZM52.4267 31.7139L53.2177 31.9629L42.6122 42.5684L32.0068 53.1738L31.8017 52.7051C31.1718 51.1523 31.2597 49.2334 32.08 47.4902C32.5048 46.582 33.0615 45.9814 39.5214 39.5215C45.9374 33.1055 46.582 32.4902 47.4755 32.0801C48.0029 31.831 48.7353 31.5674 49.0869 31.4941C49.9365 31.3183 51.4306 31.4209 52.4267 31.7139ZM63.0322 40.7373C65.4492 41.8652 68.2617 41.499 70.122 39.7998L70.4443 39.5068L70.5468 39.917C70.708 40.5762 70.5175 42.7734 70.1806 44.0332C70.0048 44.6777 69.6386 45.6006 69.3749 46.0693C68.9208 46.8896 68.8476 46.9629 67.954 47.2705C66.7529 47.6953 65.2587 47.71 63.999 47.3144C63.1054 47.0508 62.6806 46.8018 61.0253 45.6299C60.1904 45.0293 59.3847 44.956 58.623 45.4102C57.6123 46.0254 57.246 47.4463 57.8613 48.4424C58.5205 49.5264 61.5234 51.3428 63.3251 51.7236C63.7792 51.8262 64.1601 51.958 64.1601 52.0166C64.1601 52.2949 62.7099 53.1738 61.7431 53.4814C59.7363 54.1406 57.6269 53.833 56.0009 52.6465C54.2138 51.3721 54.1699 51.3428 53.4521 51.3428C52.9833 51.3428 52.6318 51.4453 52.3535 51.6504C50.8447 52.7783 50.9765 54.3018 52.705 55.708C53.7304 56.543 55.8837 57.6416 56.9824 57.876C57.4218 57.9785 57.8466 58.1103 57.9052 58.1689C58.0956 58.3301 56.748 59.2822 55.8398 59.6338C54.7119 60.0586 53.0566 60.1611 51.8994 59.8535C50.8447 59.5752 50.2587 59.2529 48.955 58.2715C48.1494 57.6562 47.9296 57.5684 47.3437 57.5684C45.7763 57.5684 44.6923 59.0918 45.249 60.5273C45.7031 61.7432 48.7646 63.6621 51.0498 64.1748L51.8554 64.3506L51.5331 64.7021C51.0058 65.2734 49.248 66.0498 48.1933 66.1963C46.7138 66.3867 45.2197 66.1084 43.9746 65.3906C43.579 65.1709 41.455 63.1787 39.0673 60.8057L34.8632 56.6162L45.7324 45.7471L56.6015 34.8779L59.3408 37.5879C61.6406 39.8437 62.2412 40.3564 63.0322 40.7373Z" fill="#FCB01B"/>
<path d="M58.5645 9.38975C57.7148 9.8292 57.4219 10.547 57.4219 12.1583V13.4767H56.1035C55.0635 13.4767 54.6533 13.5353 54.1992 13.7696C53.54 14.1065 53.0273 14.9415 53.0273 15.6739C53.0273 16.4064 53.54 17.2413 54.1992 17.5782C54.6533 17.8126 55.0635 17.8712 56.1035 17.8712H57.4219V19.1896C57.4219 20.8302 57.7148 21.5187 58.5937 21.9728C59.6924 22.5294 60.8936 22.1778 61.4941 21.1231C61.7578 20.6397 61.8164 20.3175 61.8164 19.2042V17.8712H63.1348C64.7461 17.8712 65.3906 17.6075 65.8887 16.7286C66.2842 16.0108 66.2988 15.3956 65.918 14.6485C65.4639 13.7696 64.7754 13.4767 63.1348 13.4767H61.8164V12.1583C61.8164 10.5177 61.5234 9.8292 60.6445 9.3751C59.9268 9.00889 59.2676 9.00889 58.5645 9.38975Z" fill="#FCB01B"/>
<path d="M9.97558 44.3996C6.65039 45.0441 4.24804 48.4719 4.80468 51.797C5.27343 54.6681 7.4414 56.8361 10.3125 57.3048C14.5459 58.008 18.457 54.0968 17.7539 49.8634C17.1387 46.1281 13.6377 43.6818 9.97558 44.3996ZM12.2754 48.9113C12.9053 49.2336 13.4766 50.1418 13.4766 50.8302C13.4766 51.9142 12.3633 53.0275 11.2793 53.0275C10.5469 53.0275 9.71191 52.5148 9.375 51.8556C9.00878 51.1232 9.00878 50.5373 9.375 49.8049C9.91699 48.7502 11.1914 48.3547 12.2754 48.9113Z" fill="#FCB01B"/>
<path d="M19.0137 62.1241C18.1641 62.5635 17.8711 63.2813 17.8711 64.8927V66.211H16.5527C15.5127 66.211 15.1025 66.2696 14.6484 66.504C13.9893 66.8409 13.4766 67.6759 13.4766 68.4083C13.4766 69.1407 13.9893 69.9757 14.6484 70.3126C15.1025 70.547 15.5127 70.6056 16.5527 70.6056H17.8711V71.9239C17.8711 73.5646 18.1641 74.253 19.043 74.7071C20.1416 75.2638 21.3428 74.9122 21.9434 73.8575C22.207 73.3741 22.2656 73.0519 22.2656 71.9386V70.6056H23.584C25.1953 70.6056 25.8399 70.3419 26.3379 69.463C26.7334 68.7452 26.7481 68.13 26.3672 67.3829C25.9131 66.504 25.2246 66.211 23.584 66.211H22.2656V64.8927C22.2656 63.252 21.9727 62.5635 21.0938 62.1094C20.376 61.7432 19.7168 61.7432 19.0137 62.1241Z" fill="#FCB01B"/>
</svg>
